# xmcd
#
# Track frame offsets:
# 150
# 43705
# 99462
# 152600
# 197615
# 257020
#
# Disc length: 4439 seconds
#
# Revision: 0
# Processed by: cddbd v1.4PL0 Copyright (c) Steve Scherf et al.
# Submitted via: Audion 3.0.2 (http://www.panic.com/audion/)
#
DISCID=44115506
DTITLE=Radio Diaries - Teenage Diaries
DYEAR=1900
DGENRE=
TTITLE0=Amanda: Girlfriend
TTITLE1=Josh: Growing Up with Tourette's 
TTITLE2=Melissa: Teen Mom
TTITLE3=Juan: Looking at the Rio Grande
TTITLE4=Jeff: Halfrican
TTITLE5=Nick: Home School to High School
EXTD=
EXTT0=
EXTT1=
EXTT2=
EXTT3=
EXTT4=
EXTT5=
PLAYORDER=
